<?xml version="1.0" encoding="utf-8"?>
<!-- Generator: Adobe Illustrator 21.0.0, SVG Export Plug-In . SVG Version: 6.00 Build 0)  -->
<svg version="1.1" id="Layer_1" xmlns="http://www.w3.org/2000/svg" xmlns:xlink="http://www.w3.org/1999/xlink" x="0px" y="0px"
	 viewBox="0 0 12 16" style="enable-background:new 0 0 12 16;" xml:space="preserve">
<path d="M6,15c-3.3,0-6-0.9-6-2v-2c0-0.2,0.1-0.3,0.2-0.5C0.9,11.4,3.2,12,6,12s5.1-0.6,5.8-1.5c0.1,0.2,0.2,0.3,0.2,0.5v2
	C12,14.1,9.3,15,6,15z M6,11c-3.3,0-6-0.9-6-2V7c0-0.1,0-0.2,0.1-0.3c0-0.1,0.1-0.1,0.1-0.2C0.9,7.4,3.2,8,6,8s5.1-0.6,5.8-1.5
	c0.1,0.1,0.1,0.1,0.1,0.2C12,6.8,12,6.9,12,7v2C12,10.1,9.3,11,6,11z M6,7C2.7,7,0,6.1,0,5V3c0-1.1,2.7-2,6-2s6,0.9,6,2v2
	C12,6.1,9.3,7,6,7z M6,2C3.8,2,2,2.5,2,3s1.8,1,4,1s4-0.5,4-1S8.2,2,6,2z"/>
</svg>
