<?xml version="1.0" encoding="utf-8"?>
<!-- Generator: Adobe Illustrator 21.0.0, SVG Export Plug-In . SVG Version: 6.00 Build 0)  -->
<svg version="1.1" id="Layer_1" xmlns="http://www.w3.org/2000/svg" xmlns:xlink="http://www.w3.org/1999/xlink" x="0px" y="0px"
	 viewBox="0 0 9.4 13.9" style="enable-background:new 0 0 9.4 13.9;" xml:space="preserve">
<style type="text/css">
	.st0{fill:#FFFFFF;}
</style>
<g>
	<path d="M7.7,13.2h-6c-0.9,0-1.7-0.8-1.7-1.7l0-9.8C0,0.8,0.8,0,1.7,0h6c0.9,0,1.7,0.8,1.7,1.7v9.8C9.4,12.5,8.6,13.2,7.7,13.2z"/>
	<polygon points="4.7,4.8 9,7.1 9,11.6 4.7,13.9 0.4,11.6 0.4,7.1 	"/>
	<path class="st0" d="M7.2,1.7h-5c-0.3,0-0.6,0.3-0.6,0.6V11c0,0.3,0.3,0.6,0.6,0.6h5c0.3,0,0.6-0.3,0.6-0.6V2.3
		C7.8,1.9,7.5,1.7,7.2,1.7z M4.7,11.2c-0.4,0-0.8-0.4-0.8-0.8s0.4-0.8,0.8-0.8c0.4,0,0.8,0.4,0.8,0.8S5.1,11.2,4.7,11.2z M7.2,9.1
		h-5V2.9h5V9.1z"/>
</g>
</svg>
