<?xml version="1.0" encoding="utf-8"?>
<!-- Generator: Adobe Illustrator 21.0.0, SVG Export Plug-In . SVG Version: 6.00 Build 0)  -->
<svg version="1.1" id="Layer_1" xmlns="http://www.w3.org/2000/svg" xmlns:xlink="http://www.w3.org/1999/xlink" x="0px" y="0px"
	 viewBox="0 0 12.7 12.1" style="enable-background:new 0 0 12.7 12.1;" xml:space="preserve">
<style type="text/css">
	.st0{fill:#56EFEF;}
</style>
<path d="M11,12.1H1.7c-0.9,0-1.7-0.8-1.7-1.7l0-8.7C0,0.8,0.8,0,1.7,0H11c0.9,0,1.7,0.8,1.7,1.7v8.7C12.7,11.3,11.9,12.1,11,12.1z"
	/>
<path class="st0" d="M9.7,0.8c-1.2,0-2.2,0.7-2.2,1.5c0,0.5,0.4,1,1.1,1.3v1L6.3,6L4.1,4.5v-1c1.1-0.4,1.4-1.3,0.8-2
	C4.5,1.1,3.8,0.8,3,0.8c-1.2,0-2.2,0.7-2.2,1.5c0,0.5,0.4,1,1.1,1.3v1.3l3.4,2.2v1.3c-1.1,0.4-1.4,1.3-0.8,2
	c0.4,0.5,1.1,0.7,1.9,0.7c1.2,0,2.2-0.7,2.2-1.5c0-0.5-0.4-1-1.1-1.3V7.1l3.4-2.2V3.6c1.1-0.4,1.4-1.3,0.8-2
	C11.3,1.1,10.5,0.8,9.7,0.8z M3,3.2c-0.7,0-1.4-0.4-1.4-0.9S2.2,1.4,3,1.4s1.4,0.4,1.4,0.9S3.7,3.2,3,3.2z M6.3,10.7
	C5.6,10.7,5,10.2,5,9.8s0.6-0.9,1.4-0.9s1.4,0.4,1.4,0.9S7.1,10.7,6.3,10.7z M9.7,3.2C9,3.2,8.4,2.8,8.4,2.3S9,1.4,9.7,1.4
	c0.7,0,1.4,0.4,1.4,0.9S10.5,3.2,9.7,3.2z"/>
</svg>
